<svg xmlns:svg="http://www.w3.org/2000/svg" xmlns="http://www.w3.org/2000/svg" version="1.2" baseProfile="tiny" id="svg2" x="0" y="0" width="116.4" height="66.6" viewBox="0" overflow="inherit" xml:space="preserve">
  <path id="path22" fill="#ED1C24" d="M0 66.6h19.8v-6H0V66.6z"/>
  <path id="path24" fill="#ED1C24" d="M0 58.8h19.8v-6H0V58.8z"/>
  <path id="path26" fill="#ED1C24" d="M0 51h19.8v-6H0V51z"/>
  <path id="path28" fill="#F6836C" d="M0 43.2h19.8v-6H0V43.2z"/>
  <path id="path30" fill="#F6836C" d="M0 35.4h19.8v-6H0V35.4z"/>
  <path id="path32" fill="#FFF200" d="M22.2 66.6h19.8v-6H22.2V66.6z"/>
  <path id="path34" fill="#FFF200" d="M22.2 58.8h19.8v-6H22.2V58.8z"/>
  <path id="path36" fill="#FFF200" d="M22.2 51h19.8v-6H22.2V51z"/>
  <path id="path38" fill="#EC008C" d="M44.4 66.6h19.8v-6H44.4V66.6z"/>
  <path id="path40" fill="#EC008C" d="M44.4 58.8h19.8v-6H44.4V58.8z"/>
  <path id="path42" fill="#EC008C" d="M44.4 51h19.8v-6H44.4V51z"/>
  <path id="path44" fill="#F680C5" d="M44.4 43.2h19.8v-6H44.4V43.2z"/>
  <path id="path46" fill="#F680C5" d="M44.4 35.4h19.8v-6H44.4V35.4z"/>
  <path id="path48" fill="#F680C5" d="M44.4 27.6h19.8v-6H44.4V27.6z"/>
  <path id="path50" fill="#F680C5" d="M44.4 19.8h19.8v-6H44.4V19.8z"/>
  <path id="path52" fill="#B2DB18" d="M66.6 66.6h19.8v-6h-19.8V66.6z"/>
  <path id="path54" fill="#B2DB18" d="M66.6 58.8h19.8v-6h-19.8V58.8z"/>
  <path id="path56" fill="#B2DB18" d="M66.6 51h19.8v-6h-19.8V51z"/>
  <path id="path58" fill="#D9ED84" d="M66.6 43.2h19.8v-6h-19.8V43.2z"/>
  <path id="path60" fill="#D9ED84" d="M66.6 35.4h19.8v-6h-19.8V35.4z"/>
  <path id="path62" fill="#59CAF5" d="M88.8 66.6h19.8v-6H88.8V66.6z"/>
  <path id="path64" fill="#59CAF5" d="M88.8 58.8h19.8v-6H88.8V58.8z"/>
  <path id="path66" fill="#59CAF5" d="M88.8 51h19.8v-6H88.8V51z"/>
  <path id="path68" fill="#B2E6FA" d="M88.8 43.2h19.8v-6H88.8V43.2z"/>
  <path id="path70" fill="#B2E6FA" d="M88.8 35.4h19.8v-6H88.8V35.4z"/>
  <path id="path72" fill="#B2E6FA" d="M88.8 27.6h19.8v-6H88.8V27.6z"/>
  <path id="path74" fill="#B2E6FA" d="M88.8 19.8h19.8V13.8H88.8V19.8z"/>
  <path id="path76" fill="#B2E6FA" d="M88.8 12h19.8v-6H88.8V12z"/>
  <path id="path78" fill="#231F20" d="M116.4 0 116.4 66.6 116.4 0"/>
</svg>
