<?xml version="1.0" encoding="utf-8"?>
<!-- Generator: Adobe Illustrator 15.1.0, SVG Export Plug-In . SVG Version: 6.00 Build 0)  -->
<svg version="1.2" baseProfile="tiny" id="Layer_1" xmlns="http://www.w3.org/2000/svg" xmlns:xlink="http://www.w3.org/1999/xlink"
	 x="0px" y="0px" width="105.042px" height="103.88px" viewBox="0 0 105.042 103.88" overflow="inherit" xml:space="preserve">
<path fill="#521141" d="M46.366,103.709C29.117,101.472,14.49,91.664,6.35,76.876c-1.096-1.99-1.118-2.088-0.61-2.659
	c0.782-0.88,2.759-1.691,4.118-1.691c2.598,0,4.805,1.625,7.997,5.889c3.482,4.649,6.357,6.239,10.861,6.003
	c2.026-0.107,2.839-0.307,4.441-1.096c5.264-2.59,6.434-7.267,4.989-19.949c-0.72-6.322-0.637-8.406,0.427-10.776
	c1.392-3.101,5.23-4.343,8.513-2.755c2.594,1.255,4.672,3.728,11.259,13.4c5.354,7.859,9.854,11.584,15.401,12.742
	c3.897,0.813,9.992-0.132,12.908-2.002c1.947-1.249,4.521-4.086,5.459-6.016c1.861-3.834,2.018-5.946,1.676-22.67
	c-0.1-4.824-0.03-6.189,0.398-7.897c0.96-3.821,2.605-6.554,4.665-7.749l0.937-0.542l0.872,1.944
	c3.312,7.375,4.906,16.657,4.227,24.599c-0.639,7.468-2.141,12.861-5.406,19.403c-2.657,5.323-5.279,8.993-9.426,13.192
	c-8.266,8.371-18.303,13.476-29.925,15.218C57.388,103.874,48.82,104.027,46.366,103.709L46.366,103.709z"/>
<path fill="#521141" d="M24.221,79.438c-1.326-0.639-2.937-2.246-5.036-5.028c-0.764-1.013-1.933-2.271-2.599-2.798
	c-3.249-2.572-8.123-2.817-11.202-0.563c-0.649,0.476-1.275,0.865-1.391,0.865c-0.406,0-2.703-7.644-3.322-11.054
	c-0.843-4.645-0.9-12.51-0.126-17.209c3.57-21.664,20.034-38.56,41.89-42.99c2.906-0.589,4.212-0.673,10.215-0.66
	c7.814,0.018,10.231,0.386,16.716,2.543c5.507,1.832,12.085,5.389,16.199,8.759l0.895,0.733l-1.836,3.694
	c-3.681,7.403-4.979,12.509-4.969,19.545c0.01,4.469,0.127,5.405,2.007,15.552c0.586,3.16,0.587,7.404,0,9.371
	c-0.254,0.854-0.88,2.029-1.39,2.61c-2.488,2.832-7.176,2.546-10.721-0.655c-0.696-0.629-3.088-3.906-5.315-7.281
	c-7.178-10.882-11.548-14.286-19.061-14.849c-3.173-0.238-5.464,0.218-8.432,1.678c-7.03,3.457-8.576,9.705-6.25,25.255
	c1.239,8.281,0.996,10.881-1.15,12.286c-1.185,0.776-3.714,0.871-5.124,0.194H24.221z"/>
</svg>
