<svg xmlns="http://www.w3.org/2000/svg" xmlns:xlink="http://www.w3.org/1999/xlink" version="1.2" baseProfile="tiny" x="0" y="0" width="57.79" height="70.76" viewBox="0" overflow="inherit" xml:space="preserve">
  <g id="Layer_1"/>
  <g id="Artwork">
    <g id="XMLID_1_">
      <path d="M57.21 51.58c-0.06 0.25-1.44 5.05-4.87 9.92 -2.87 4.29-5.88 8.49-10.65 8.57 -4.65 0.09-6.21-2.74-11.53-2.74 -5.38 0-7.04 2.66-11.49 2.83 -4.55 0.18-8.02-4.57-11-8.83 -5.94-8.67-10.56-24.45-4.37-35.21 3.01-5.25 8.5-8.65 14.37-8.74 4.55-0.08 8.77 3.08 11.57 3.08 2.75 0 7.97-3.78 13.36-3.24 2.26 0.08 8.67 0.9 12.8 6.94 -0.33 0.2-7.64 4.49-7.55 13.31C47.94 48.05 57.1 51.54 57.21 51.58z"/>
      <path d="M42.66 0.33c0.45 4.13-1.19 8.21-3.59 11.2 -2.5 2.93-6.49 5.2-10.38 4.91 -0.51-3.99 1.46-8.21 3.67-10.79C34.86 2.73 39.19 0.48 42.66 0.33z"/>
    </g>
  </g>
</svg>
